<?xml version="1.0" encoding="UTF-8"?>
<svg width="72px" height="72px" viewBox="0 0 72 72" version="1.1" xmlns="http://www.w3.org/2000/svg" xmlns:xlink="http://www.w3.org/1999/xlink">
    <!-- Generator: Sketch 55.2 (78181) - https://sketchapp.com -->
    <title>logo-inner-for-dave</title>
    <desc>Created with Sketch.</desc>
    <g id="logo-inner-for-dave" stroke="none" stroke-width="1" fill="none" fill-rule="evenodd">
        <g id="Group" transform="translate(4.000034, 4.000000)">
            <path d="M40.2368273,47.7411011 C39.8839141,44.9844447 39.2646331,42.2715585 38.4649529,39.6134934 C37.9095233,37.7781783 37.3067821,35.9526139 36.6657686,34.1333333 C36.3776683,34.4694105 36.0959147,34.8111215 35.8257005,35.1645334 C34.7471516,36.5285605 33.8318851,38.030182 33.0666307,39.6295281 C33.9128532,42.3287631 34.5073244,45.1198723 34.8427362,47.9319999 C35.5056746,53.3066347 35.344123,58.7100886 34.7727306,64 C36.1007228,63.8894911 37.4065979,63.6751904 38.6847784,63.3631651 C39.4994598,61.0101914 40.0498891,58.553426 40.3299118,56.0710918 C40.6378213,53.3001342 40.587625,50.4964574 40.2368273,47.7411011" id="Fill-1" fill="#0A9DD9"></path>
            <path d="M46.9155499,57.9999486 C47.3306346,56.9111376 47.7034665,55.8091774 48.0134665,54.6942833 C48.6391585,52.4672974 49.0183393,50.1879297 49.0619057,47.9143821 C49.108756,45.6388945 48.804667,43.3849632 48.2626049,41.1614264 C47.7277673,38.932716 46.9212419,36.7382803 46.2819764,34.4093329 C45.6878098,32.2961646 45.2092364,30.0424488 45.1884383,27.7333333 C43.8376616,28.5013859 42.5186291,29.3041441 41.2654936,30.184074 C40.2695967,30.8587876 39.3106985,31.5781228 38.3999641,32.3438041 C39.2518072,34.4981451 40.0782549,36.6781381 40.7299993,38.9275425 C41.5428735,41.7108976 42.1838905,44.5722866 42.4411291,47.485842 C42.7080006,50.3950861 42.6088269,53.3461496 42.0858114,56.2170234 C41.666567,58.5306657 40.9697238,60.7807169 40.0613976,62.9333333 C42.0199145,62.4280526 43.9120966,61.7470878 45.7191163,60.9033725 C45.8765245,60.4653476 46.0803451,60.0469389 46.256581,59.6224945 C46.4875485,59.0853105 46.7051614,58.5440307 46.9155499,57.9999486" id="Fill-2" fill="#0961AB"></path>
            <path d="M62.0022167,27.8706613 C61.6449321,29.1794058 61.198808,30.4346517 60.7882197,31.6708223 C60.3851238,32.9102817 59.9833124,34.1170718 59.65664,35.3286855 C59.0118579,37.7490627 58.6584266,40.1972856 58.6667753,42.7327726 C58.6674175,43.9976658 58.7457676,45.2800996 58.9270858,46.5574904 C59.0174237,47.1966244 59.1276703,47.834662 59.2552567,48.4713841 C59.295288,48.6717849 59.3393866,48.8691162 59.3824149,49.0666667 C61.4905868,45.5133889 62.967035,41.4895859 63.6238051,37.1329508 C64.3229612,32.4943513 64.0384607,27.8572866 62.8456567,23.4666667 C62.7133608,24.9641915 62.4014593,26.4516304 62.0022167,27.8706613" id="Fill-3" fill="#732060"></path>
            <path d="M19.2809729,10.146354 C19.4558289,12.9121127 19.9699674,15.6334902 20.8786413,18.203398 C21.6237761,20.4332716 22.7064183,22.5035058 23.9321849,24.5333333 C24.1649563,24.1579709 24.3921803,23.7792965 24.6333838,23.4090125 C25.4952371,22.1104793 26.4207753,20.85434 27.3880303,19.6315417 C28.3597234,18.412497 29.367142,17.2195069 30.4468996,16.0920948 C30.483069,16.0545586 30.5214574,16.0196719 30.5578487,15.9821357 C30.5407626,15.8719558 30.5205698,15.7633215 30.504815,15.6529208 C30.076995,12.6668023 30.1477805,9.5437869 30.9608162,6.60227029 C31.6063186,4.23042137 32.7255741,2.01114623 34.1332974,0.0484423517 C28.9497512,-0.232196261 23.9519339,0.716145865 19.4378551,2.64307991 C19.34843,3.75790632 19.2554546,4.86390066 19.2266078,5.97585665 C19.1808968,7.37065926 19.1908822,8.76347465 19.2809729,10.146354" id="Fill-4" fill="#0A9DD9"></path>
            <path d="M32.3687488,6.78256106 C31.8876431,9.11120383 31.9063122,11.5077818 32.2569486,13.8666667 C32.6972826,13.4450302 33.139548,13.0249278 33.5949032,12.6190699 C37.7988917,8.87321154 42.6841964,5.84176834 47.9999641,4.13221232 C44.6607641,2.18312999 40.9698549,0.848751501 37.0547014,0.231417915 C36.5178029,0.146827655 35.9721062,0.0747287018 35.433491,0.0181890975 C35.3562394,0.0100807046 35.2798462,0.00723180985 35.2034529,0 C34.625139,0.919973871 34.0916738,1.85419222 33.6530565,2.83618434 C33.0771029,4.10416166 32.6447086,5.42933603 32.3687488,6.78256106" id="Fill-5" fill="#0961AB"></path>
            <path d="M23.2944626,56.1125824 C22.4536934,53.7218191 21.1015461,51.4912912 19.5536771,49.3458816 C18.7141342,48.169758 17.8054265,47.0185315 16.8763617,45.8666667 C16.3909818,48.2044438 16.096173,50.5756299 16.020386,52.9563918 C15.9737856,54.3993616 16.0066512,55.8455234 16.1219258,57.2884932 C16.1798084,58.0098717 16.2573122,58.7303991 16.3566447,59.4490112 C16.3995661,59.7533096 16.4459212,60.0656941 16.4812394,60.3804194 C19.0185084,61.4963218 21.7156903,62.3547409 24.5332974,62.9333333 C24.5114688,61.8644589 24.4307765,60.8123954 24.261053,59.7682053 C24.0599355,58.521859 23.7065083,57.3061553 23.2944626,56.1125824" id="Fill-6" fill="#CE0D4E"></path>
            <path d="M41.813449,8.9510612 C39.3917025,10.4938072 37.1622631,12.3128943 35.0905921,14.2831153 C34.3181661,15.0196031 33.5800653,15.7902384 32.8590206,16.5749964 C32.6134135,16.8420628 32.3626895,17.1042811 32.1232651,17.3757741 C31.7653012,17.7792194 31.4150125,18.1889882 31.0653634,18.5991787 C30.4886555,19.2758032 29.9217549,19.9595944 29.3815044,20.6646751 C28.5086609,21.7940689 27.6882647,22.9622474 26.902407,24.1521369 C26.4521272,24.8215947 26.0201826,25.5039105 25.5999641,26.192339 C26.7672378,27.9764355 27.9888776,29.7655909 29.1199072,31.6506542 C30.0059692,33.137331 30.8370254,34.677126 31.5651057,36.2666667 C32.2646172,35.1733173 33.0466372,34.1324538 33.9128716,33.165998 C34.4868078,32.5292121 35.0931505,31.9257305 35.7206001,31.3473325 C36.3627605,30.7554441 37.0281598,30.1911688 37.7155188,29.6576683 C38.4939145,29.0537651 39.2961886,28.4850632 40.1163716,27.9524059 C41.8411651,26.8641154 43.6273603,25.9136793 45.4340229,25.0406018 C45.6922089,23.1979067 46.2220126,21.4022169 47.0042458,19.7555531 C48.0058626,17.5490406 49.334316,15.5543684 50.7689434,13.6825847 C51.4833788,12.7431095 52.2312868,11.8348306 52.9992356,10.9486844 C53.4591095,10.4250909 53.9226077,9.90255124 54.3999641,9.39560983 C52.8229187,7.85750109 51.0962064,6.49961477 49.2473301,5.33333333 C46.628373,6.25236226 44.1341383,7.45869312 41.813449,8.9510612 Z" id="Fill-7" fill="#CE0D4E"></path>
            <path d="M60.5026826,27.8037965 C62.8472085,22.999272 61.5390047,19.508623 61.1626752,18.7693658 C60.9891241,18.4288673 60.8160262,18.0888003 60.6295607,17.7539121 C59.8651202,16.3794029 58.9914739,15.0478337 58.0088484,13.7699933 C57.1642028,12.6714649 56.2495477,11.6409067 55.2832351,10.6666667 C54.8681625,11.1946767 54.4535431,11.7205289 54.0522911,12.2578175 C53.339055,13.2109112 52.6500616,14.1763042 52.0097804,15.1658645 C50.7332962,17.146064 49.626738,19.2067488 48.797499,21.3200836 C48.3935283,22.380635 48.0699891,23.4549963 47.8141938,24.5319468 C47.8107953,24.548346 47.8080765,24.5645294 47.8044514,24.5809286 C47.6279549,25.3667939 47.5101396,26.15978 47.4544038,26.9553554 C47.4344658,27.2371621 47.4220046,27.5196162 47.4179264,27.8018545 C47.3393073,29.9950273 47.7437312,32.2067571 48.3602228,34.4426541 C48.9846442,36.6748829 49.7012789,38.9755134 50.1868141,41.3682814 C50.6841309,43.7556549 50.8894016,46.239913 50.6834512,48.6838205 C50.4892824,51.1288069 49.9255812,53.5207117 49.1142411,55.8042958 C48.7109501,56.9481377 48.2444465,58.066302 47.7360279,59.1626726 C47.4795529,59.7094554 47.2160543,60.2527857 46.9389616,60.7892111 C46.937149,60.7926635 46.9348834,60.7963318 46.9332974,60.8 C51.6619985,58.3530716 55.7393166,54.8475338 58.7721561,50.5610936 C58.6683879,50.3809185 58.5877297,50.1918965 58.51047,50.0011483 C58.3885764,49.6979795 58.2669094,49.3788431 58.1529457,49.0685536 C57.9222994,48.4430117 57.7093255,47.8094859 57.5162895,47.1671133 C57.1327099,45.8834469 56.8211789,44.5659033 56.6394713,43.2172875 C56.2701654,40.5248032 56.5123667,37.6927102 57.3542934,35.0884792 C58.1502269,32.4626705 59.3857023,30.0921277 60.5026826,27.8037965" id="Fill-8" fill="#273B81"></path>
            <path d="M32.9400518,56.3600364 C32.8033113,53.6345495 32.5132623,50.9282486 32.027712,48.2698048 C31.6833202,46.4592089 31.251229,44.6703858 30.699186,42.9227372 C30.4422729,42.1095966 30.1623856,41.3044322 29.8486997,40.5115554 C29.7157145,40.168148 29.5654988,39.8316388 29.422352,39.4923272 C28.5228246,37.3585877 27.446131,35.2968494 26.2053046,33.2993519 C25.3068817,31.8218159 24.3368855,30.361957 23.3748418,28.8729956 C22.853063,28.0654599 22.3348185,27.2495169 21.8311539,26.4137412 C21.8015526,26.3639438 21.7697422,26.3152244 21.7392572,26.2652115 C20.2912214,23.8348438 19.0230027,21.2171433 18.2173601,18.4599672 C17.4152521,15.6997731 17.0785921,12.8460204 17.0584897,10.0304241 C17.0456771,8.62079357 17.1159251,7.21719909 17.2422831,5.82330538 C17.3273317,4.94613966 17.4258556,4.06962067 17.5530972,3.2 C16.0907025,3.88444363 14.6853014,4.67128435 13.3468347,5.55513282 C12.4196942,7.89948699 11.5460127,10.2556977 10.9078166,12.670113 C10.2362638,15.1780869 9.77302486,17.7304689 9.64070244,20.2839287 C9.50705458,22.8350171 9.69769607,25.3820097 10.2800031,27.8367372 C10.5682848,29.0652866 10.9637057,30.2653803 11.4269447,31.4421922 C11.8806846,32.6226689 12.4216823,33.7749055 13.0291726,34.9012734 C13.9943089,36.7030308 15.1405877,38.4263197 16.3264087,40.1528423 C16.6257357,40.5893772 16.9274927,41.0263433 17.2301333,41.4643872 C17.4687113,41.8039143 17.7086147,42.1460284 17.948739,42.4872801 C19.2346302,44.3183555 20.5229513,46.1830602 21.681159,48.1613717 C23.0454717,50.5087439 24.1800425,53.0473292 24.843201,55.7161204 C25.1878136,57.0464202 25.3510628,58.417032 25.4166718,59.7770808 C25.4732236,60.9821327 25.4199854,62.1930051 25.2673396,63.3743441 C25.7418447,63.4663936 26.2178962,63.5521916 26.6985866,63.6248397 C27.1439322,63.6920984 27.5941377,63.7440514 28.0419132,63.7934176 C28.1508197,63.8054897 28.2601679,63.8233822 28.3686325,63.8348076 C28.6388,63.8617542 28.9074212,63.875982 29.176705,63.896677 C30.472316,63.9954093 31.7577654,64.0253739 33.0277513,63.9779479 C33.049621,62.802645 33.0666307,61.6303601 33.0666307,60.4608777 C33.0584572,59.0900503 33.0220078,57.7224564 32.9400518,56.3600364 Z" id="Fill-9" fill="#629F43"></path>
            <path d="M10.2726166,51.7781223 C9.96821489,50.1560213 9.4710177,48.5755294 8.84349634,47.0434356 C7.58845362,43.9742111 5.84510476,41.0915709 4.12398354,38.1079736 C3.26880436,36.6137661 2.43912847,35.0772923 1.75451717,33.4602282 C1.1148291,31.9520049 0.590022838,30.3861858 0.17869452,28.8 C-0.936899006,39.1273986 3.24330107,48.797591 10.6666307,55.4666667 C10.6532941,55.0571447 10.6331723,54.6467468 10.5999478,54.233283 C10.5334989,53.4083262 10.4242325,52.5888444 10.2726166,51.7781223" id="Fill-12" fill="#6E3F19"></path>
            <path d="M15.963275,59.7333333 C15.8390804,58.9860572 15.7195247,58.1654208 15.6322301,57.4118505 C15.4567973,55.9049269 15.3541102,54.3878022 15.3212165,52.8680731 C15.2560618,49.8273126 15.4713464,46.7774363 15.9394482,43.7661935 C15.9584253,43.6442158 15.9803544,43.5226722 15.9999641,43.4002605 C15.838237,43.1630334 15.6760883,42.9273256 15.5152046,42.6881452 C14.0204419,40.5118635 12.5885144,38.2294483 11.3779864,35.7855537 C10.7738821,34.5642575 10.2302937,33.3017233 9.77484332,32.0005556 C9.32740552,30.6967834 8.98160062,29.3524244 8.73236806,27.9924383 C8.23200524,25.2709467 8.15251229,22.4845596 8.43463848,19.7687112 C8.9160242,15.0784304 10.3110518,10.6262447 12.097851,6.4 C4.93146617,11.7103703 -0.393085836,23.3041108 1.42576359,27.7821244 C2.04167585,29.2983809 2.78810837,30.7525633 3.59695446,32.177445 C4.40748741,33.6023267 5.22666548,35.0345878 6.01548019,36.5111256 C7.58572962,39.4574728 9.10115633,42.5772366 9.99202566,45.9500716 C10.440096,47.6301949 10.7399342,49.3548118 10.8826841,51.0852889 C10.9522668,51.950853 10.9805216,52.8183704 10.9676594,53.6824152 C10.9615445,54.1125928 10.9429891,54.5471112 10.9168429,54.9818466 L10.8670807,55.6251595 C10.8537968,55.7412771 10.8360848,55.8569605 10.8141557,55.972644 C12.3945263,57.3920997 14.1159599,58.6568043 15.9630641,59.7333333 C15.9613773,59.7242176 15.9601122,59.7153188 15.963275,59.7333333" id="Fill-21" fill="#046535"></path>
        </g>
    </g>
</svg>