<?xml version="1.0" encoding="UTF-8"?>
<svg width="72px" height="72px" viewBox="0 0 72 72" version="1.1" xmlns="http://www.w3.org/2000/svg" xmlns:xlink="http://www.w3.org/1999/xlink">
    <!-- Generator: Sketch 55.2 (78181) - https://sketchapp.com -->
    <title>Artboard</title>
    <desc>Created with Sketch.</desc>
    <g id="Artboard" stroke="none" stroke-width="1" fill="none" fill-rule="evenodd">
        <path d="M46.4895114,1.55211919 C43.1706911,0.542823247 39.6487371,0 36,0 C16.117749,0 0,16.117749 0,36 C0,55.882251 16.117749,72 36,72 C55.882251,72 72,55.882251 72,36 C72,32.398094 71.4710215,28.9197376 70.4865127,25.6383789 L68.8658769,27.2590147 C69.6057493,30.048175 70,32.9780464 70,36 C70,54.7776815 54.7776815,70 36,70 C17.2223185,70 2,54.7776815 2,36 C2,17.2223185 17.2223185,2 36,2 C39.069442,2 42.0438851,2.40673893 44.8723715,3.16925907 L46.4895114,1.55211919 Z" id="Combined-Shape" fill="#A0A1A5"></path>
    </g>
</svg>