<?xml version="1.0" encoding="UTF-8"?>
<svg width="72px" height="72px" viewBox="0 0 72 72" version="1.1" xmlns="http://www.w3.org/2000/svg" xmlns:xlink="http://www.w3.org/1999/xlink">
    <!-- Generator: Sketch 55.2 (78181) - https://sketchapp.com -->
    <title>logo-outer-for-dave</title>
    <desc>Created with Sketch.</desc>
    <g id="logo-outer-for-dave" stroke="none" stroke-width="1" fill="none" fill-rule="evenodd">
        <path d="M38,0.0569748273 C38.5612286,0.0885130937 39.1244341,0.133249418 39.6892968,0.191443865 C59.434969,2.2260011 73.8428578,19.9441738 71.8085066,39.6893031 C69.7745896,59.4342153 52.0565368,73.8426765 32.3112989,71.8085536 C12.5667125,69.7744307 -1.8426965,52.0558237 0.191437604,32.3111286 C2.02778928,14.4858528 16.6476248,1.00973388 34,0.0542419625 L34,2.05752282 C17.6599831,3.01114083 3.91131305,15.7190978 2.18079393,32.5161726 C0.259773475,51.1642022 13.8677202,67.8978944 32.5159745,69.8191295 C51.1640133,71.7405801 67.8979293,58.1326401 69.8191653,39.4843949 C71.7404013,20.8363653 58.1326702,4.10224198 39.4842003,2.18079136 C38.9880312,2.12967813 38.4932168,2.0895588 38,2.06023577 L38,0.0569748273 Z" id="Combined-Shape" fill="#A0A1A5"></path>
    </g>
</svg>